<svg id="visual" viewBox="0 0 960 540" width="960" height="540" xmlns="http://www.w3.org/2000/svg" xmlns:xlink="http://www.w3.org/1999/xlink" version="1.1"><rect x="0" y="0" width="960" height="540" fill="#002233"></rect><path d="M630 540L644.7 528.8C659.3 517.7 688.7 495.3 700.3 472.8C712 450.3 706 427.7 668.8 405.2C631.7 382.7 563.3 360.3 566.7 337.8C570 315.3 645 292.7 622.7 270.2C600.3 247.7 480.7 225.3 456 202.8C431.3 180.3 501.7 157.7 545.3 135.2C589 112.7 606 90.3 609 67.8C612 45.3 601 22.7 595.5 11.3L590 0L960 0L960 11.3C960 22.7 960 45.3 960 67.8C960 90.3 960 112.7 960 135.2C960 157.7 960 180.3 960 202.8C960 225.3 960 247.7 960 270.2C960 292.7 960 315.3 960 337.8C960 360.3 960 382.7 960 405.2C960 427.7 960 450.3 960 472.8C960 495.3 960 517.7 960 528.8L960 540Z" fill="#0066FF" stroke-linecap="round" stroke-linejoin="miter"></path></svg>